<svg xmlns="http://www.w3.org/2000/svg" viewBox="0 0 1058.1 220"><defs><style>.cls-1{fill:#666;}.cls-2{fill:#189379;}.cls-3{fill:#1f967d;}.cls-4{fill:#1a947a;}.cls-5{fill:#656565;}.cls-6{fill:#696969;}.cls-7{fill:#149177;}.cls-8{fill:#1c947b;}.cls-9{fill:#189378;}.cls-10{fill:#1d957c;}.cls-11{fill:#1b947a;}.cls-12{fill:#19937a;}.cls-13{fill:#179278;}.cls-14{fill:#199379;}.cls-15{fill:#676767;}.cls-16{fill:#1c957b;}.cls-17{fill:#23987f;}</style></defs><title>id3</title><g id="Layer_2" data-name="Layer 2"><g id="Layer_1-2" data-name="Layer 1"><path class="cls-1" d="M983.89,220c-2-.63-3.91-1.33-5.9-1.86-3.52-1-7.13-1.61-10.59-2.75-15.28-5-17.64-8.92-15.32-24.69.57-3.88,3-4.72,6.89-2.35,15.61,9.42,32.61,11.14,50.08,8.12,14.55-2.52,21.21-10.27,23-24.87.48-3.89.61-7.81,1-12.66-16.1,16.41-34.79,17.58-54.16,11.5-23-7.2-36.47-29-35.8-55.31.68-26,19.22-48.11,44.74-52.64a51.93,51.93,0,0,1,28,2.26,29.78,29.78,0,0,1,16.08,13.61c0-4.17-.49-7.12.17-9.79.44-1.74,2.46-4.23,3.94-4.35a132.88,132.88,0,0,1,18-.08c1.41.08,2.74,1.82,4.1,2.8l0,91.12c-.39,5.8-.76,11.59-1.17,17.38-1.42,20.54-12.38,33.75-31.45,40.56-4.44,1.59-9.05,2.68-13.59,4Zm-15-102.85c-.31,19,12.91,33,31.49,33.43,18.4.36,33.23-13.68,33.51-31.74a32.9,32.9,0,0,0-32.83-33.66C983.4,85,969.19,99.12,968.89,117.15Z"/><path class="cls-2" d="M162.89,0,173.3,2.29c53.28,11.76,85.73,69.29,68.18,120.9-.53,1.54-1.07,3.45-2.24,4.29s-3.73,1.07-4.48.34a6.53,6.53,0,0,1-1.76-5c1.07-5.86,3.16-11.56,4-17.45,6.12-44-23.2-85.9-66.62-95.1a114.08,114.08,0,0,0-17.8-2c-7.15-.37-8.39-1.91-5.67-8.25Z"/><path class="cls-3" d="M134.89,0c2.91,6.17,1.73,8.15-4.95,8.19-6.16,0-12.32,0-18.48,0C95.91,8.22,86.58,17.36,86.52,33c-.09,28,0,55.94,0,83.91,0,1.33.43,2.92-.15,3.93-.87,1.54-2.41,3.67-3.74,3.73s-3.34-1.76-4.2-3.25c-.74-1.27-.37-3.23-.37-4.89q0-39.47,0-78.92C78,16,83.43,7.88,102.89,0Z"/><path class="cls-4" d="M38.89,0c2.94,1.38,6,2.53,8.79,4.17A28.27,28.27,0,0,1,60.23,37.34c-.93,2.75-2.15,5.3-5.53,4.22S51.43,37.85,52.52,35c4.49-11.82-4-24.38-16-26.85s-22.78,5.8-24.71,18.72c-.43,2.89-1.46,4.89-4.62,4.58C3.9,31.12,3.49,28.61,3.8,25.9c1.3-11,7.09-18.72,16.93-23.57C22.16,1.63,23.51.78,24.89,0Z"/><path class="cls-1" d="M288.12,125.16c.47,15.56,12,26.87,28,27.75,13,.72,25.57-.8,37.08-7.64,3.87-2.3,5.88-1,6.06,3.5.11,2.66-.39,5.41.1,8,1.36,7.12-2.17,10.64-8.28,13.11-17.62,7.11-35.67,8.72-53.68,2.65-20.07-6.77-31.74-21.3-34.62-42.38-3-22,.92-41.85,19.07-56.79,16-13.2,43.67-16.3,61.75-6.06,20.23,11.47,28.66,29.61,27.54,52.62-.21,4.27-2,5.33-5.86,5.31-23.83-.1-47.65,0-71.47,0Zm56.43-18.73c-.31-14.4-13.33-23.82-30.43-22.54-13.5,1-26.14,12.44-24.72,22.54Z"/><path class="cls-1" d="M852.05,78.67c6.71-9.84,15.12-14.8,25.37-16.21,26.91-3.71,47.44,10.23,48.47,38.18.83,22.3.31,44.64.44,67,0,3.84-1.7,5.39-5.49,5.27-5-.16-10-.17-15,0-4.39.15-5.85-1.92-5.83-6.07.1-19,0-38,0-57,0-14.81-7.47-23.77-20.49-24.65-14.33-1-25,7.53-27,21.57a54.64,54.64,0,0,0-.46,7.46c0,17.67-.1,35.33,0,53,0,4-1.24,5.87-5.44,5.7-5-.21-10-.13-15,0-3.47.07-5.25-1.17-5.24-4.92q.09-49.49,0-99c0-3.61,1.45-5.12,5.1-5,5.16.17,10.33.16,15.5,0,3.57-.11,5.29,1.17,5,4.93C851.9,71.64,852.05,74.42,852.05,78.67Z"/><path class="cls-5" d="M414.31,77.82c15.56-17.37,40.17-21,57.33-9.3,11.94,8.16,16.4,20.28,16.59,34.06.3,21.66,0,43.33.13,65,0,3.91-1.55,5.41-5.35,5.3-4.82-.14-9.67-.23-14.49,0-4.53.24-6.17-1.48-6.12-6.08.18-18.33.13-36.66,0-55a44.63,44.63,0,0,0-1.06-10.4c-2.71-11-11.38-16.84-23.67-16.26-11.68.55-21.23,8.73-22.75,20.09-.73,5.42-.59,11-.61,16.45-.08,15-.14,30,0,45,.05,4.47-1.4,6.46-6.05,6.19a110.39,110.39,0,0,0-13.49,0c-4.82.31-6.46-1.68-6.43-6.4.15-21.5.06-43,.06-64.5,0-10.67.12-21.33-.05-32-.07-4.49,1.56-6.37,6.18-6.07a112.59,112.59,0,0,0,14,0c4.45-.26,6.07,1.64,5.75,5.88C414.17,72.09,414.31,74.38,414.31,77.82Z"/><path class="cls-1" d="M753.59,142.68l17.22-41.83C775.1,90.4,779.55,80,783.6,69.46c1.53-4,3.48-6,8-5.55s9,.06,13.48.1c5.82,0,6.93,1.65,4.68,7q-12.9,30.56-25.88,61.07C773,157.76,762,183.42,751.24,209.19c-1.58,3.8-3.45,5.64-7.69,5.31s-8.65-.06-13-.08c-6.82,0-7.61-1.3-4.85-7.75,4.13-9.62,8.44-19.18,12.31-28.9a11,11,0,0,0,.12-7.34c-13.19-33-26.59-66-39.93-98.94-2.43-6-1.46-7.46,5-7.49,4.5,0,9,.26,13.48-.08,4-.3,5.89,1.35,7.33,5,9.18,23.37,18.58,46.65,27.91,70C752.31,139.82,752.73,140.72,753.59,142.68Z"/><path class="cls-5" d="M669.05,64c5.63,0,10.6.1,15.57,0,3.44-.09,4.81,1.41,4.72,4.79-.12,4.67-.14,9.34,0,14,.11,3.61-1.4,5.18-5,5.1-4.81-.11-9.64,0-15.28,0v5.48q0,36.24,0,72.47c0,6.7-.36,7-7.13,7.05-4.33,0-8.67-.18-13,0-4.6.24-6.12-1.76-6.1-6.23.13-24.33.06-48.65.06-73V87.84c-4.42,0-8.38-.09-12.33,0-3.53.1-5.24-1.31-5.12-5,.15-4.66.14-9.33,0-14-.11-3.71,1.56-5.07,5.14-4.91,3.95.18,7.91,0,11.92,0,.42-5.73.62-11,1.25-16.26,1.86-15.69,11.19-25.38,27-27.5,5.74-.76,11.62-.33,17.44-.48,3.56-.08,5.13,1.51,5,5.16-.19,4-.17,8,0,12s-1.6,5.48-5.45,5a33.6,33.6,0,0,0-4.49-.07c-9.7,0-13.9,4.22-14.09,14C669,58.34,669.05,60.81,669.05,64Z"/><path class="cls-1" d="M543.32,64c6.3,0,12.09.14,17.88,0,4-.13,5.89,1.36,5.73,5.51-.16,4.33-.14,8.67,0,13,.12,3.84-1.6,5.47-5.39,5.41-5.81-.1-11.63,0-18.21,0v5.59q0,36.24,0,72.49c0,6.37-.54,6.9-6.78,6.92H524c-6.13,0-7-.8-7-6.85q0-30.74,0-61.49V87.84c-3.22,0-6.14,0-9.07,0-3.31,0-4.91-1.67-4.92-4.92,0-4.5.05-9,0-13.5-.07-4,1.81-5.75,5.84-5.45,2.47.18,5,0,8.17,0V53c0-8.16.09-16.33,0-24.49-.07-4.15,1.36-6.2,5.83-6,5,.25,10,.22,15,0,4.16-.19,5.6,1.57,5.54,5.61-.16,10.17,0,20.33,0,30.5Z"/><path class="cls-6" d="M582,118q0-23.71,0-47.44c0-5.8.79-6.51,6.69-6.53,4.49,0,9,.25,13.47-.07,4.93-.34,6.36,1.82,6.34,6.45-.12,28.13-.06,56.26-.06,84.39,0,4.16-.06,8.32,0,12.48.07,3.92-1.52,5.83-5.67,5.66q-7.49-.3-15,0c-4.38.17-5.89-1.85-5.86-6C582.1,150.58,582,134.27,582,118Z"/><path class="cls-7" d="M113.06,152.21c16.53,0,32.44,1.26,48.07-.32,19.63-2,33.88-13.52,43.44-30.73.56-1,.75-2.52,1.58-3a30.74,30.74,0,0,1,5.34-2.21c.62,2,2.39,4.64,1.68,5.77-4.36,7-8.45,14.5-14.18,20.29-12.69,12.82-28.52,19.16-46.76,19.06-13.65-.08-27.3-.15-40.95.06-4.83.07-6.46-1.87-6.44-6.51.1-28.81.06-57.61,0-86.41,0-3.14.56-6,4.36-5.88,3.51.11,4,2.93,3.84,5.82,0,1,0,2,0,3v81.11Z"/><path class="cls-8" d="M132.17,187.52c-9.15,0-18.36.6-27.45-.14-14-1.14-25.13-13.32-26.25-28.27-.56-7.44-.13-15-.18-22.45,0-3.06,1-5.51,4.41-5.37,3.16.13,3.82,2.65,3.8,5.42,0,6.67-.14,13.33,0,20,.28,13,9.23,22.74,22.14,23,17.13.31,34.35.6,51.42-.67,24.22-1.8,44.1-12.77,59.16-32.06,1.33-1.71,2.39-3.82,4.09-5,1.5-1,3.73-1,5.64-1.42.26,2.07,1.51,4.87.61,6.09a116.24,116.24,0,0,1-13.15,15.6c-18.09,17.17-39.95,25.25-64.76,25.63-6.49.09-13,0-19.49,0Z"/><path class="cls-9" d="M113.07,34.88c0,5.21.33,9.87-.17,14.44-.2,1.75-2,4.31-3.59,4.7-3,.75-4.42-1.53-4.42-4.5,0-6-.29-12,.19-18,.13-1.66,2.53-4.51,3.88-4.5,18.79.06,37.76-1,56.3,1.28,23.79,3,46.85,21.93,53.5,54.39a16.69,16.69,0,0,1,.17,6.45c-.3,1.53-1.7,2.86-2.61,4.28-1.33-1.21-3.27-2.18-3.86-3.68-1.5-3.85-2.38-7.94-3.55-11.92-7.41-25.16-29.1-42.21-55.15-42.91C140.47,34.59,127.15,34.88,113.07,34.88Z"/><path class="cls-4" d="M224.83,93.93c-.81-5.58-1.86-11.14-2.28-16.75-.14-1.92,1.31-4,2-5.94,1.92,1.17,4.73,1.91,5.56,3.62a27.31,27.31,0,0,1,2.51,10.06c3.19,50.25-30.27,82.87-68.2,88.62-2.46.37-5,.47-7.46.63-2.79.17-5.61-.61-5-3.81.33-1.7,2.9-3.69,4.83-4.24,8.12-2.3,16.83-3,24.5-6.28C207.9,148.61,224.32,122.83,224.83,93.93Z"/><path class="cls-10" d="M126.49,48c0,9.55,0,18.35,0,27.16,0,9.82.19,19.65.11,29.47,0,3,.58,7.07-3.92,7.36-4.73.32-5-3.58-5-7,0-19.3,0-38.6.15-57.91,0-6.26,1.22-7.4,7.33-7.27,12.46.26,25,.45,37.38,1.28,4.17.28,8.37,2.11,12.23,3.92,1.34.63,1.69,3.35,2.49,5.12-1.91.8-4.36,2.79-5.63,2.21C157.31,45.75,142.19,49.06,126.49,48Z"/><path class="cls-8" d="M3.71,147.06c0-4.83-.29-9.68.17-14.47C4,131,6.08,129.54,7.27,128c1.39,1.5,3.93,2.95,4,4.51.41,8.64.08,17.3.25,26,.19,9.17,4.51,15.85,12.93,19.61,8,3.56,15.71,2.34,21.73-3.53,3.46-3.38,5.41-8.51,7.35-13.14,1-2.48,1.34-5,4.7-4.45s3.41,3,3.09,5.73c-1.68,14.12-14.9,25.57-29,25.1C17.05,187.3,4.67,175.75,3.85,161c-.26-4.65,0-9.32,0-14Z"/><path class="cls-8" d="M150.36,13.41c33.29.71,58.27,15.12,73.95,44.87,1.41,2.68,2.67,5.49-.79,7.3s-5.19-.66-6.58-3.39c-11.35-22.38-29.57-35.51-54.16-39.69-5.54-.94-11.28-.68-16.93-.9-2.94-.11-6.06-.06-6.06-4.12s3.12-4.08,6.07-4.07Z"/><path class="cls-11" d="M139.91,125.75c6.33,0,12.08.72,17.59-.13,16.37-2.52,27.42-16.54,26.83-33.19-.11-3-.06-6.11,3.81-6.32,4.14-.22,4.49,3,4.66,6.18,1.24,22.4-16.73,41.49-40,42.27-5.15.17-10.31,0-15.47,0-3.87.05-5.89-1.43-5.72-5.62.2-4.81.07-9.65,0-14.47,0-2.66.74-4.63,3.85-4.67s4.34,1.94,4.35,4.83C139.92,118.3,139.91,121.93,139.91,125.75Z"/><path class="cls-2" d="M206.1,94.9c.07,18.25-8.29,32.11-22.5,42.87-2.4,1.82-5.18,4-7.76.59s.35-5.36,2.78-7.21c20.76-15.8,25.54-42.71,11.08-63.23a67.61,67.61,0,0,0-7.66-8.5c-2.22-2.24-3.81-4.61-1.21-7.28s4.82-.54,6.88,1.26C200.3,64.37,206.11,78.33,206.1,94.9Z"/><path class="cls-12" d="M49.07,114c0,7.33,0,14.65,0,22,0,2.77-.48,5.12-4,5-3.25-.11-4.1-2.19-4.09-5.08q.06-21,0-41.95C41,87.51,38,83.69,32.85,83.6c-5.59-.09-8.68,3.54-8.77,10.35-.06,4,.22,8-.27,12-.19,1.47-2.14,2.72-3.29,4.07-1.47-1.28-4.15-2.52-4.2-3.85-.21-6.28-.39-12.71.72-18.86,1.34-7.43,9.44-12.4,17-11.59,8.27.89,14.51,6.8,14.87,14.83.35,7.81.08,15.64.08,23.46Z"/><path class="cls-13" d="M99.9,135.57c0,6.82,0,13.64,0,20.46s3.43,10.06,10.19,10.11c9.15.06,18.3,0,27.45,0,3,0,6.46-.28,6.45,4.18,0,4.25-3.32,3.82-6.15,3.82-9.65,0-19.3.08-28.95,0s-16.65-6.36-16.93-16c-.42-14.95-.19-29.91-.2-44.87,0-2.77,1-5.56,4.09-4.82,1.66.39,3.74,3.28,3.86,5.14C100.16,120.91,99.9,128.25,99.9,135.57Z"/><path class="cls-14" d="M16,138.54v-19c0-2.93.71-5.57,4.26-5.49,3.34.07,3.7,2.7,3.7,5.38,0,12.64,0,25.29.1,37.94.06,6.86,5.07,11.17,10.87,9.4,3.67-1.12,5.91-3.69,6-7.67.11-3.49-.36-7.06.23-10.45.29-1.66,2.41-3,3.7-4.49,1.38,1.54,3.66,2.92,3.94,4.64.58,3.55.22,7.29,0,10.94A16.21,16.21,0,0,1,35,175c-8.61,1-16.63-3.74-18-12.12-1.3-8-.94-16.21-1.31-24.34Z"/><path class="cls-13" d="M91.72,58c0-8.65-.1-17.31,0-25.95.17-11.78,7-18.43,18.74-18.57,2.16,0,4.32,0,6.49,0,2.86,0,5,.88,5,4.14s-2.49,3.93-5.18,4c-2,.05-4,0-6,0-7.62.12-10.9,3.4-10.91,11q0,25.2,0,50.4c0,1.17.42,2.6-.1,3.44a35.68,35.68,0,0,1-4,4.6c-1.34-1.53-3.78-3-3.84-4.59-.36-9.47-.18-19-.18-28.44Z"/><path class="cls-15" d="M579.73,36.14c0-8.8,6.55-15.29,15.47-15.3a15.08,15.08,0,0,1,15.54,15.29,15.51,15.51,0,0,1-31,0Z"/><path class="cls-16" d="M46.87,70.94c-2.33.3-4.81,1.26-7,.79-16.69-3.6-28.39,5.58-28.42,22.54,0,7.65.06,15.3,0,23,0,2.65,0,5.72-3.88,5.74s-3.87-2.91-3.86-5.67c0-9-.24-18,.19-26.93A28.65,28.65,0,0,1,40.48,64.12c3.48,1,6.82,2.2,6.32,6.88Z"/><path class="cls-14" d="M46.8,71C53.92,69.86,57,74.56,59,80a37,37,0,0,1,2.61,12c.27,18.28.12,36.56.12,54.85,0,.5.2,1.15,0,1.47-1.24,1.63-2.6,3.18-3.93,4.75-1.29-1.58-3.43-3-3.71-4.77-.59-3.56-.18-7.28-.18-10.94,0-14.46-.05-28.92,0-43.38a25.51,25.51,0,0,0-5.13-15.78c-1.38-1.89-1.31-4.84-1.9-7.31Z"/><path class="cls-11" d="M49,29.87c-.37,5.73-3.53,10.67-9.69,13.49a16.15,16.15,0,0,1-18.05-3.1c-1.88-1.83-3.54-3.92-1.39-6.48,2.3-2.74,4.47-1.59,6.81.4,4.18,3.56,8.78,3.42,12,0a7.82,7.82,0,0,0,.18-10.84,8.5,8.5,0,0,0-13.6,1.42c-.48.86-.47,2.19-1.14,2.71a39.23,39.23,0,0,1-5,2.88c-.82-1.73-2.51-3.55-2.33-5.17.84-7.34,9-13.33,16.66-12.69C42.65,13.26,49.12,20.07,49,29.87Z"/><path class="cls-10" d="M147,61.59c-4.82,0-8.23.44-11.44-.18-1.78-.35-3.21-2.48-4.79-3.81,1.45-1.47,2.94-4.23,4.35-4.2,9.6.23,19.37.1,28.72,1.93,11.19,2.18,19.05,9.89,24.17,20,.82,1.63-.48,4.34-.79,6.55-2-.66-5-.73-5.74-2.07C173.5,65.51,161.18,60.31,147,61.59Z"/><path class="cls-12" d="M36.75,133.15q0,11,0,22c0,1.16.4,2.67-.17,3.42a29.66,29.66,0,0,1-4.33,3.94C31.1,161.1,29,159.72,29,158.31q-.36-25,0-49.93c0-1.47,2.36-2.91,3.62-4.36,1.38,1.72,3.88,3.38,4,5.18C37,117.16,36.74,125.16,36.75,133.15Z"/><path class="cls-3" d="M126.49,139.81c6.31,0,11.93,0,17.55,0,2.79,0,5.08.5,5,4-.06,3.32-2.18,4.12-5,4.11-6.83,0-13.66-.1-20.48,0-3.9.07-5.47-1.94-5.5-5.49-.07-6.65-.33-13.32.18-19.94.14-1.85,2.67-3.51,4.11-5.26,1.38,1.76,3.77,3.43,4,5.32C126.83,128.08,126.49,133.71,126.49,139.81Z"/><path class="cls-8" d="M33.08,57.06c-10.23-.33-18.77-3.92-24.59-12.78-1.62-2.46-3.27-5.22-.21-7.46,3.24-2.38,5,.24,6.67,2.74C22.25,50.26,34.81,52.5,45.44,45c2.39-1.69,4.82-3.21,6.88-.29s.39,5.58-2.46,6.9c-5.31,2.46-10.8,4.53-16.22,6.76Z"/><path class="cls-13" d="M131.73,92.24c0-3.15-.46-6.39.16-9.41.37-1.78,2.46-3.2,3.77-4.77,1.36,1.37,3.79,2.67,3.89,4.13a164.49,164.49,0,0,1,.13,20.35c-.09,1.48-2.53,2.82-3.88,4.23-1.36-1.53-3.55-2.9-3.89-4.63C131.28,99,131.73,95.55,131.73,92.24Z"/><path class="cls-11" d="M166.55,137.39c1,1.11,3.23,2.49,3.22,3.86a6.14,6.14,0,0,1-3.21,4.5,19.32,19.32,0,0,1-8.24,1.47c-1.74-.07-3.43-1.67-5.14-2.58,1.18-1.73,2-4.22,3.62-5C159.39,138.36,162.54,138.23,166.55,137.39Z"/><path class="cls-10" d="M220.86,102.54l-6.54,8c-1.42-1.49-4.1-3-4-4.43.16-3-.83-7.77,4.26-7.92C216.24,98.12,218,100.46,220.86,102.54Z"/><path class="cls-10" d="M130.37,23.46c-2.46-2.82-5.09-4.46-5.22-6.27-.27-3.81,3.21-3.33,5.86-3.39s6.14,0,5.46,3.71C136.12,19.43,133.15,20.87,130.37,23.46Z"/><path class="cls-3" d="M38.69,93.4c-2.65,2.44-4.09,4.88-5.9,5.19-3,.51-4.09-2-4.11-4.9s.64-5.87,4.08-5.43C34.53,88.48,36,91,38.69,93.4Z"/><path class="cls-17" d="M129.78,69.72c2.82-2.08,4.72-4.47,6-4.17,1.66.4,3.84,2.89,3.86,4.51s-2.42,4-4,4.18C134.22,74.4,132.53,72,129.78,69.72Z"/><path class="cls-17" d="M101.83,98.73c-2.8,2.24-4.34,4.42-6,4.51-1.31.06-3.94-2.52-3.85-3.76.13-1.74,2-4.31,3.58-4.7C96.91,94.45,98.87,96.74,101.83,98.73Z"/><path class="cls-17" d="M173.71,104.28c-1.94-2.53-4.09-4.11-4-5.59s2.27-3,3.55-4.48c1.52,1.42,3.88,2.65,4.28,4.34C177.82,99.8,175.56,101.66,173.71,104.28Z"/><path class="cls-17" d="M238.61,134.26c-2.63,2-4.19,4.08-5.67,4s-4.1-2.52-3.93-3.55a6.23,6.23,0,0,1,3.84-4.29C234.08,130.15,235.91,132.36,238.61,134.26Z"/><path class="cls-17" d="M245.2,39c-2.77,1.87-4.62,4-5.85,3.73-1.68-.43-2.88-2.73-4.29-4.23,1.49-1.23,2.93-3.34,4.49-3.44S242.56,37.06,245.2,39Z"/><path class="cls-3" d="M71,40.87c-1.86-2.91-3.87-4.68-3.64-6.09s2.61-3.62,4.06-3.64c1.28,0,3.52,2.45,3.61,3.94S73,38.11,71,40.87Z"/><path class="cls-17" d="M32.76,22.54c1.89,3,3.88,4.72,3.68,6.17s-2.5,2.77-3.88,4.14c-1.28-1.45-3.42-2.8-3.58-4.36S30.83,25.4,32.76,22.54Z"/><path class="cls-3" d="M67.3,182.38c-1.7-2.91-3.44-4.57-3.33-6.1.09-1.34,2.6-3.78,3.42-3.54,1.66.46,3.87,2.31,4,3.79S69.4,179.57,67.3,182.38Z"/><path class="cls-17" d="M19.77,192.08c-2.57,2-4.11,4-5.27,3.84-1.63-.27-3-2.21-4.45-3.44,1.37-1.35,2.56-3.41,4.16-3.81C15.36,188.38,17.06,190.32,19.77,192.08Z"/><path class="cls-3" d="M3.73,47.14c1.86,2.47,4,4.13,3.72,5.19-.4,1.61-2.46,2.81-3.82,4.18C2.34,55.11.33,53.86,0,52.28-.2,51.15,1.88,49.57,3.73,47.14Z"/><path class="cls-17" d="M109,201.69c-1.94-2.76-3.86-4.31-3.83-5.83,0-1.31,2.26-2.58,3.53-3.86,1.34,1.35,3.4,2.53,3.77,4.1C112.78,197.27,110.84,199,109,201.69Z"/><path class="cls-16" d="M75.07,140.69c-2.72,1.64-4.49,3.53-5.66,3.21-1.51-.41-2.54-2.59-3.78-4,1.38-1.13,2.75-3.12,4.14-3.14S72.56,138.71,75.07,140.69Z"/></g></g></svg>